HIERARCHY
ROOT Root
{
  OFFSET 0.0 0.0 0.0
  CHANNELS 6 Xposition Yposition Zposition Zrotation Yrotation Xrotation
  JOINT Hips
  {
    OFFSET 0.0 100.0 0.0
    CHANNELS 6 Xposition Yposition Zposition Zrotation Yrotation Xrotation
    JOINT Spine1
    {
      OFFSET 5.003913 -0.037094 -0.013727
      CHANNELS 3 Zrotation Yrotation Xrotation
      JOINT Spine2
      {
        OFFSET 7.125363 -1e-06 0.0
        CHANNELS 3 Zrotation Yrotation Xrotation
        JOINT Chest
        {
          OFFSET 7.594027 1e-06 0.0
          CHANNELS 3 Zrotation Yrotation Xrotation
          JOINT Neck1
          {
            OFFSET 26.313086 -0.460272 -0.181672
            CHANNELS 3 Zrotation Yrotation Xrotation
            JOINT Neck2
            {
              OFFSET 8.04591 0.0 0.0
              CHANNELS 3 Zrotation Yrotation Xrotation
              JOINT Head
              {
                OFFSET 6.432777 0.0 0.0
                CHANNELS 3 Zrotation Yrotation Xrotation
                JOINT HeadEnd
                {
                  OFFSET 16.169769 0.06451 0.00362
                  CHANNELS 3 Zrotation Yrotation Xrotation
                }
                JOINT Jaw
                {
                  OFFSET 0.108738 3.12938 0.002639
                  CHANNELS 3 Zrotation Yrotation Xrotation
                }
                JOINT LeftEye
                {
                  OFFSET 4.451729 8.166359 3.206392
                  CHANNELS 3 Zrotation Yrotation Xrotation
                }
                JOINT RightEye
                {
                  OFFSET 4.43689 8.135758 -3.222429
                  CHANNELS 3 Zrotation Yrotation Xrotation
                }
              }
            }
          }
          JOINT LeftShoulder
          {
            OFFSET 23.218927 5.195579 1.621656
            CHANNELS 3 Zrotation Yrotation Xrotation
            JOINT LeftArm
            {
              OFFSET 15.902122 2e-06 -2e-06
              CHANNELS 3 Zrotation Yrotation Xrotation
              JOINT LeftForeArm
              {
                OFFSET 28.739304 0.0 -1e-06
                CHANNELS 3 Zrotation Yrotation Xrotation
                JOINT LeftHand
                {
                  OFFSET 27.093979 -4e-06 0.0
                  CHANNELS 3 Zrotation Yrotation Xrotation
                  JOINT LeftHandThumb1
                  {
                    OFFSET 2.276787 3.380274 0.83384
                    CHANNELS 3 Zrotation Yrotation Xrotation
                    JOINT LeftHandThumb2
                    {
                      OFFSET 4.705307 -2e-06 -1e-06
                      CHANNELS 3 Zrotation Yrotation Xrotation
                      JOINT LeftHandThumb3
                      {
                        OFFSET 2.798515 0.0 3e-06
                        CHANNELS 3 Zrotation Yrotation Xrotation
                        JOINT LeftHandThumbEnd
                        {
                          OFFSET 3.180786 5e-06 -4e-06
                          CHANNELS 3 Zrotation Yrotation Xrotation
                        }
                      }
                    }
                  }
                  JOINT LeftHandIndex1
                  {
                    OFFSET 3.24778 2.352677 0.137192
                    CHANNELS 3 Zrotation Yrotation Xrotation
                    JOINT LeftHandIndex2
                    {
                      OFFSET 6.367104 1e-06 0.0
                      CHANNELS 3 Zrotation Yrotation Xrotation
                      JOINT LeftHandIndex3
                      {
                        OFFSET 3.662361 0.0 0.0
                        CHANNELS 3 Zrotation Yrotation Xrotation
                        JOINT LeftHandIndex4
                        {
                          OFFSET 2.329239 4e-06 -4e-06
                          CHANNELS 3 Zrotation Yrotation Xrotation
                          JOINT LeftHandIndexEnd
                          {
                            OFFSET 2.767822 0.0 0.0
                            CHANNELS 3 Zrotation Yrotation Xrotation
                          }
                        }
                      }
                    }
                  }
                  JOINT LeftHandMiddle1
                  {
                    OFFSET 3.163612 0.945023 -0.406112
                    CHANNELS 3 Zrotation Yrotation Xrotation
                    JOINT LeftHandMiddle2
                    {
                      OFFSET 6.276794 3e-06 0.0
                      CHANNELS 3 Zrotation Yrotation Xrotation
                      JOINT LeftHandMiddle3
                      {
                        OFFSET 4.356522 -1e-06 4e-06
                        CHANNELS 3 Zrotation Yrotation Xrotation
                        JOINT LeftHandMiddle4
                        {
                          OFFSET 2.996872 0.0 8e-06
                          CHANNELS 3 Zrotation Yrotation Xrotation
                          JOINT LeftHandMiddleEnd
                          {
                            OFFSET 2.323257 3e-06 -4e-06
                            CHANNELS 3 Zrotation Yrotation Xrotation
                          }
                        }
                      }
                    }
                  }
                  JOINT LeftHandRing1
                  {
                    OFFSET 2.882607 -0.309162 0.107445
                    CHANNELS 3 Zrotation Yrotation Xrotation
                    JOINT LeftHandRing2
                    {
                      OFFSET 6.033195 0.0 4e-06
                      CHANNELS 3 Zrotation Yrotation Xrotation
                      JOINT LeftHandRing3
                      {
                        OFFSET 4.350578 3e-06 0.0
                        CHANNELS 3 Zrotation Yrotation Xrotation
                        JOINT LeftHandRing4
                        {
                          OFFSET 2.651321 1e-06 -7e-06
                          CHANNELS 3 Zrotation Yrotation Xrotation
                          JOINT LeftHandRingEnd
                          {
                            OFFSET 1.937668 1e-06 -4e-06
                            CHANNELS 3 Zrotation Yrotation Xrotation
                          }
                        }
                      }
                    }
                  }
                  JOINT LeftHandPinky1
                  {
                    OFFSET 2.865311 -1.525436 0.575687
                    CHANNELS 3 Zrotation Yrotation Xrotation
                    JOINT LeftHandPinky2
                    {
                      OFFSET 5.549362 1e-06 -8e-06
                      CHANNELS 3 Zrotation Yrotation Xrotation
                      JOINT LeftHandPinky3
                      {
                        OFFSET 3.070969 0.0 -4e-06
                        CHANNELS 3 Zrotation Yrotation Xrotation
                        JOINT LeftHandPinky4
                        {
                          OFFSET 1.549675 1e-06 0.0
                          CHANNELS 3 Zrotation Yrotation Xrotation
                          JOINT LeftHandPinkyEnd
                          {
                            OFFSET 1.952118 0.0 0.0
                            CHANNELS 3 Zrotation Yrotation Xrotation
                          }
                        }
                      }
                    }
                  }
                }
              }
            }
          }
          JOINT RightShoulder
          {
            OFFSET 23.161718 5.296122 -1.380114
            CHANNELS 3 Zrotation Yrotation Xrotation
            JOINT RightArm
            {
              OFFSET -16.027195 -2e-06 1.1e-05
              CHANNELS 3 Zrotation Yrotation Xrotation
              JOINT RightForeArm
              {
                OFFSET -28.736641 4e-06 2e-06
                CHANNELS 3 Zrotation Yrotation Xrotation
                JOINT RightHand
                {
                  OFFSET -27.133617 6e-06 0.0
                  CHANNELS 3 Zrotation Yrotation Xrotation
                  JOINT RightHandThumb1
                  {
                    OFFSET -2.274328 -3.351035 -0.83067
                    CHANNELS 3 Zrotation Yrotation Xrotation
                    JOINT RightHandThumb2
                    {
                      OFFSET -4.703592 -3e-06 2e-06
                      CHANNELS 3 Zrotation Yrotation Xrotation
                      JOINT RightHandThumb3
                      {
                        OFFSET -2.794937 -4e-06 -3e-06
                        CHANNELS 3 Zrotation Yrotation Xrotation
                        JOINT RightHandThumbEnd
                        {
                          OFFSET -3.183853 4e-06 1e-06
                          CHANNELS 3 Zrotation Yrotation Xrotation
                        }
                      }
                    }
                  }
                  JOINT RightHandIndex1
                  {
                    OFFSET -3.253498 -2.33755 -0.127667
                    CHANNELS 3 Zrotation Yrotation Xrotation
                    JOINT RightHandIndex2
                    {
                      OFFSET -6.344433 0.0 0.0
                      CHANNELS 3 Zrotation Yrotation Xrotation
                      JOINT RightHandIndex3
                      {
                        OFFSET -3.654869 0.0 -8e-06
                        CHANNELS 3 Zrotation Yrotation Xrotation
                        JOINT RightHandIndex4
                        {
                          OFFSET -2.327587 -1e-06 0.0
                          CHANNELS 3 Zrotation Yrotation Xrotation
                          JOINT RightHandIndexEnd
                          {
                            OFFSET -2.770004 3e-06 8e-06
                            CHANNELS 3 Zrotation Yrotation Xrotation
                          }
                        }
                      }
                    }
                  }
                  JOINT RightHandMiddle1
                  {
                    OFFSET -3.168224 -0.944764 0.411762
                    CHANNELS 3 Zrotation Yrotation Xrotation
                    JOINT RightHandMiddle2
                    {
                      OFFSET -6.266689 -1e-06 -4e-06
                      CHANNELS 3 Zrotation Yrotation Xrotation
                      JOINT RightHandMiddle3
                      {
                        OFFSET -4.348904 0.0 0.0
                        CHANNELS 3 Zrotation Yrotation Xrotation
                        JOINT RightHandMiddle4
                        {
                          OFFSET -3.000237 2e-06 -4e-06
                          CHANNELS 3 Zrotation Yrotation Xrotation
                          JOINT RightHandMiddleEnd
                          {
                            OFFSET -2.32148 -4e-06 -4e-06
                            CHANNELS 3 Zrotation Yrotation Xrotation
                          }
                        }
                      }
                    }
                  }
                  JOINT RightHandRing1
                  {
                    OFFSET -2.885654 0.293261 -0.119232
                    CHANNELS 3 Zrotation Yrotation Xrotation
                    JOINT RightHandRing2
                    {
                      OFFSET -6.032833 -1e-06 -4e-06
                      CHANNELS 3 Zrotation Yrotation Xrotation
                      JOINT RightHandRing3
                      {
                        OFFSET -4.33881 0.0 -4e-06
                        CHANNELS 3 Zrotation Yrotation Xrotation
                        JOINT RightHandRing4
                        {
                          OFFSET -2.654903 -4e-06 -4e-06
                          CHANNELS 3 Zrotation Yrotation Xrotation
                          JOINT RightHandRingEnd
                          {
                            OFFSET -1.935123 0.0 4e-06
                            CHANNELS 3 Zrotation Yrotation Xrotation
                          }
                        }
                      }
                    }
                  }
                  JOINT RightHandPinky1
                  {
                    OFFSET -2.866241 1.503903 -0.60527
                    CHANNELS 3 Zrotation Yrotation Xrotation
                    JOINT RightHandPinky2
                    {
                      OFFSET -5.553177 -1e-06 0.0
                      CHANNELS 3 Zrotation Yrotation Xrotation
                      JOINT RightHandPinky3
                      {
                        OFFSET -3.062664 -1e-06 -4e-06
                        CHANNELS 3 Zrotation Yrotation Xrotation
                        JOINT RightHandPinky4
                        {
                          OFFSET -1.546532 2e-06 4e-06
                          CHANNELS 3 Zrotation Yrotation Xrotation
                          JOINT RightHandPinkyEnd
                          {
                            OFFSET -1.952339 0.0 -4e-06
                            CHANNELS 3 Zrotation Yrotation Xrotation
                          }
                        }
                      }
                    }
                  }
                }
              }
            }
          }
        }
      }
    }
    JOINT LeftLeg
    {
      OFFSET -8.443107 2.567604 10.043214
      CHANNELS 3 Zrotation Yrotation Xrotation
      JOINT LeftShin
      {
        OFFSET 43.229202 1e-06 -1e-06
        CHANNELS 3 Zrotation Yrotation Xrotation
        JOINT LeftFoot
        {
          OFFSET 42.298607 1e-06 1e-06
          CHANNELS 3 Zrotation Yrotation Xrotation
          JOINT LeftToeBase
          {
            OFFSET 14.165863 1e-06 0.0
            CHANNELS 3 Zrotation Yrotation Xrotation
            JOINT LeftToeEnd
            {
              OFFSET 6.714096 -0.234461 0.0
              CHANNELS 3 Zrotation Yrotation Xrotation
            }
          }
        }
      }
    }
    JOINT RightLeg
    {
      OFFSET -8.303924 2.592729 -10.047277
      CHANNELS 3 Zrotation Yrotation Xrotation
      JOINT RightShin
      {
        OFFSET -43.369686 0.0 0.0
        CHANNELS 3 Zrotation Yrotation Xrotation
        JOINT RightFoot
        {
          OFFSET -42.260784 4e-06 3e-06
          CHANNELS 3 Zrotation Yrotation Xrotation
          JOINT RightToeBase
          {
            OFFSET -14.222237 -2e-06 -2e-06
            CHANNELS 3 Zrotation Yrotation Xrotation
            JOINT RightToeEnd
            {
              OFFSET -6.660072 0.232574 -1e-06
              CHANNELS 3 Zrotation Yrotation Xrotation
            }
          }
        }
      }
    }
  }
}
MOTION
Frames: 4
Frame Time: 0.03333333333333333
0.0 0.0 0.0 0.0 -0.0 0.0 -0.304406 100.303375 5.210325 91.143173 -0.482164 89.722786 -3.987674 -0.659453 -0.297913 -12.416924 -0.844539 -0.103691 18.591963 -0.570777 -2.471442 22.043591 1.227392 2.584719 -2.565969 -0.789757 -2.303162 -29.666931 -1.09544 -3.41445 6e-06 -0.0 -1e-06 0.036323 0.013293 -0.02241 0.073289 0.028337 -0.012482 0.037066 -0.001725 -0.026829 -105.455383 -73.357033 122.453178 49.268978 -61.550674 2.435032 26.936808 0.125831 0.068565 -2.333924 5.061918 5.476075 17.636641 -26.322683 52.411148 -19.466764 -14.395604 29.410433 -2e-05 -8.774836 -1e-06 16.160179 -18.192482 6.092997 -0.609772 -1.79566 -3.889328 -4.807069 -11.04682 -2.937867 6.9e-05 -20.976065 -3.6e-05 -5.019877 -25.033627 -4.03191 3e-06 1e-06 1e-06 -10.634535 -5.686971 -3.565587 10.573323 -17.922998 -3.113935 4.3e-05 -13.821246 -1.7e-05 -0.501653 -31.181654 -4.027056 -12.034693 -59.990719 8.009864 -13.982713 -7.150192 -2.875037 13.772756 -8.401529 -3.218266 0.347852 -34.211655 0.771592 -0.96297 -17.733452 2.621035 0.0 1e-06 1e-06 -17.346395 -20.095226 -4.201793 21.757572 -1.638415 3.866417 1.9e-05 -6.338835 -7e-06 -1.697498 -22.591822 -6.194057 -0.0 -3e-06 -1e-06 37.945641 -69.492729 162.372543 46.462746 -52.604931 2.103422 27.182816 -0.457987 0.048517 -7.212457 8.780403 1.42023 22.182165 -20.375927 49.933403 -16.701906 -16.743595 28.476633 -6e-06 -12.690666 3e-06 16.032927 -17.591122 2.631826 -0.10592 -1.513862 -4.275895 -5.039062 -5.612897 -2.953566 7e-06 -11.020596 -5e-06 -6.111331 -15.895477 -3.840502 0.0 0.0 -1e-06 -10.283401 -5.680308 -4.341842 11.028339 -11.302451 -2.372652 -1.384269 -14.238669 -6.320156 -0.625418 -26.924423 -3.827646 -3.926546 -49.313347 -3.923173 -13.70857 -7.363502 -3.720939 18.141232 -14.052799 -3.242698 1.4e-05 -18.787392 -1.2e-05 -0.429707 -8.456119 2.555518 1e-06 1e-06 1e-06 -15.923593 -20.094553 -5.473581 30.419336 -7.190851 1.735922 3e-06 -8.162971 -1e-05 -1.861891 -22.861666 -6.168012 0.0 -1e-06 -1e-06 174.840271 0.051776 -0.790902 14.554795 -0.009581 -0.023955 -78.292038 4.56066 -0.310207 -5.676143 1.42303 2.129796 -0.999998 -0.0 -0.0 -7.185587 -1.978789 -6.635757 17.962687 -0.029331 -0.086767 -80.774414 -4.557955 -3.587618 -6.083666 0.724724 1.658853 -1.000005 -0.0 0.0 
0.0 0.0 0.0 0.0 -0.0 0.0 -0.312283 100.299545 5.348016 91.137657 -0.498088 89.729279 -3.99492 -0.672866 -0.309965 -12.394897 -0.827746 -0.074726 18.561598 -0.517602 -2.530085 22.0387 1.232326 2.587415 -2.536851 -0.784172 -2.339515 -29.677677 -1.120501 -3.430241 6e-06 0.0 -0.0 0.035453 0.012246 0.004067 0.066439 0.02998 0.010648 0.031124 -0.005527 0.002138 -105.306541 -73.435257 122.24614 49.309769 -61.619961 2.254741 26.910563 0.013659 0.013073 -2.283594 5.024527 5.58638 17.636581 -26.32268 52.411079 -19.466608 -14.395555 29.410334 -3e-06 -8.774796 -1e-06 16.161657 -18.183121 6.06951 -0.609776 -1.795647 -3.889322 -4.807071 -11.046788 -2.937843 7e-06 -20.975994 7e-06 -5.019947 -25.03356 -4.031862 5e-06 -2e-06 0.0 -10.634505 -5.686958 -3.565581 10.57324 -17.92292 -3.113887 3e-06 -13.821197 7e-06 -0.501772 -31.181528 -4.026991 -12.018892 -59.989155 8.035878 -13.982677 -7.150182 -2.875038 13.772685 -8.401477 -3.218232 0.347726 -34.211525 0.771677 -0.963038 -17.733398 2.621039 -1e-06 2e-06 -0.0 -17.346371 -20.095177 -4.201775 21.757492 -1.638372 3.866417 2e-06 -6.338819 3e-06 -1.697572 -22.591757 -6.193998 -1e-06 -3e-06 -1e-06 37.95649 -69.568169 162.348846 46.612278 -52.585049 1.873214 27.135288 -0.494058 0.031758 -7.064399 8.759314 1.375319 22.182093 -20.375847 49.933228 -16.701799 -16.743549 28.4765 2e-06 -12.69062 2e-06 16.077751 -17.619196 2.601992 -0.10592 -1.513855 -4.275875 -5.039045 -5.612872 -2.953554 -2e-06 -11.020529 -0.0 -6.111317 -15.895373 -3.840481 -1e-06 2e-06 -0.0 -10.283374 -5.680288 -4.341824 11.028296 -11.302391 -2.372635 -1.384277 -14.238586 -6.320119 -0.625431 -26.92424 -3.827617 -3.958879 -49.489143 -3.901594 -13.708529 -7.363476 -3.720925 18.141161 -14.052717 -3.242677 -3e-06 -18.787279 -5e-06 -0.429713 -8.456063 2.555509 -0.0 -3e-06 2e-06 -15.923554 -20.094475 -5.473562 30.419241 -7.190803 1.735925 -1e-06 -8.162927 -2e-06 -1.861909 -22.861532 -6.167973 1e-06 -4e-06 2e-06 174.850937 0.077969 -0.784984 14.59236 -0.001775 0.014285 -78.423553 4.517984 -0.408231 -5.694785 1.460848 2.142571 -0.999998 1e-06 -0.0 -7.226326 -1.985042 -6.485384 18.083939 -0.028129 -0.069502 -80.874969 -4.713228 -3.641882 -6.130292 0.710965 1.658636 -1.000001 -1e-06 0.0 
0.0 0.0 0.0 0.0 -0.0 0.0 -0.285849 100.281715 5.424791 91.154282 -0.524499 89.704048 -4.005601 -0.697122 -0.324367 -12.397155 -0.822534 -0.065952 18.577259 -0.461086 -2.541879 22.034994 1.239842 2.598195 -2.555558 -0.758424 -2.404377 -29.651924 -1.150515 -3.43298 6e-06 -0.0 -1e-06 0.034156 0.012255 0.010462 0.050277 0.028536 0.016693 0.021431 -0.0045 0.00807 -105.146439 -73.522491 122.010292 49.256454 -61.701595 2.224983 26.950409 -0.061608 -0.026429 -2.308383 4.979685 5.498227 17.636559 -26.322515 52.410793 -19.466461 -14.395464 29.410118 1.2e-05 -8.774755 -1.4e-05 16.17618 -18.217335 6.049381 -0.609775 -1.795641 -3.889301 -4.80707 -11.046739 -2.937824 -2.3e-05 -20.97587 1e-05 -5.019954 -25.033407 -4.031866 4e-06 2e-06 -1e-06 -10.634473 -5.686943 -3.565569 10.573168 -17.922815 -3.11385 -1.1e-05 -13.821114 6e-06 -0.5018 -31.181311 -4.026984 -12.06639 -59.993484 8.032666 -13.982633 -7.150166 -2.875026 13.772614 -8.40142 -3.218195 0.347688 -34.211288 0.771664 -0.963035 -17.733269 2.621001 -3e-06 1e-06 1e-06 -17.346327 -20.095102 -4.201748 21.757404 -1.638342 3.866422 -2e-06 -6.338781 -0.0 -1.697598 -22.591612 -6.193972 -1e-06 -3e-06 -6e-06 37.892181 -69.605865 162.384033 46.697449 -52.530991 1.725835 27.114777 -0.512131 0.003625 -6.989044 8.757829 1.389807 22.181992 -20.375746 49.932991 -16.701662 -16.743399 28.476305 -3e-06 -12.690501 -4e-06 16.11179 -17.618715 2.590172 -0.105922 -1.513847 -4.275851 -5.039004 -5.612831 -2.95354 6e-06 -11.020452 0.0 -6.111238 -15.895241 -3.840451 -1e-06 0.0 1e-06 -10.283306 -5.680253 -4.341814 11.028206 -11.302325 -2.372608 -1.384257 -14.238482 -6.320076 -0.625418 -26.924025 -3.827577 -3.990694 -49.56142 -3.892146 -13.708439 -7.36343 -3.720919 18.141003 -14.05264 -3.242632 8e-06 -18.78714 6e-06 -0.429704 -8.455998 2.555491 1e-06 -0.0 4e-06 -15.923433 -20.094351 -5.473551 30.418978 -7.190771 1.73593 4e-06 -8.162871 -2e-06 -1.861873 -22.86133 -6.167897 0.0 -4e-06 -2e-06 174.81778 0.125094 -0.742788 14.685486 0.001413 0.036537 -78.544777 4.412785 -0.465611 -5.648509 1.476213 2.151074 -0.999999 -0.0 0.0 -7.311924 -2.017822 -6.372124 18.273222 -0.025139 -0.06558 -80.985863 -4.8317 -3.698617 -6.110661 0.700834 1.657491 -1.000001 -1e-06 -1e-06 
0.0 0.0 0.0 0.0 -0.0 0.0 -0.25266 100.260437 5.499208 91.172127 -0.54732 89.681938 -4.002079 -0.726417 -0.336682 -12.409811 -0.82023 -0.067526 18.602755 -0.412956 -2.545306 22.038771 1.249768 2.602638 -2.583002 -0.732273 -2.472017 -29.657251 -1.169733 -3.435666 6e-06 -0.0 0.0 0.032358 0.011648 0.006713 0.033044 0.025886 0.013332 0.011064 -0.003542 0.003311 -104.980606 -73.595718 121.805275 49.250065 -61.741844 2.283831 26.986624 -0.072363 -0.029975 -2.333689 4.97264 5.435315 17.636562 -26.322714 52.411266 -19.466616 -14.395556 29.410423 2.5e-05 -8.774826 -3e-06 16.176577 -18.219898 6.041251 -0.609783 -1.795657 -3.889325 -4.80712 -11.046841 -2.937854 -6.1e-05 -20.976088 -7e-06 -5.020039 -25.033735 -4.031943 5e-06 -0.0 1e-06 -10.634537 -5.687001 -3.565593 10.573215 -17.922947 -3.113897 -3.7e-05 -13.821252 -9e-06 -0.501825 -31.181717 -4.027102 -12.107113 -60.011055 8.030234 -13.982714 -7.150236 -2.875043 13.772695 -8.401465 -3.218235 0.347632 -34.211681 0.77165 -0.963067 -17.733492 2.621 1e-06 -2e-06 -2e-06 -17.346451 -20.095272 -4.201773 21.757549 -1.638311 3.866445 -1.7e-05 -6.338846 -3e-06 -1.697647 -22.591915 -6.194076 1e-06 -3e-06 -4e-06 37.797787 -69.62635 162.475006 46.78463 -52.478909 1.595407 27.104622 -0.487305 -0.00833 -6.971996 8.737035 1.395261 22.182018 -20.375784 49.93317 -16.701612 -16.743464 28.476364 2.9e-05 -12.690538 -3e-06 16.12678 -17.605785 2.589723 -0.105926 -1.513842 -4.275865 -5.039033 -5.612834 -2.953542 -2.1e-05 -11.020425 3e-06 -6.1113 -15.895209 -3.840476 -1e-06 -1e-06 -2e-06 -10.283345 -5.680271 -4.341822 11.028214 -11.302281 -2.372607 -1.384297 -14.238452 -6.320089 -0.625467 -26.923916 -3.827604 -4.024845 -49.551018 -3.869407 -13.708489 -7.363455 -3.720924 18.141029 -14.052579 -3.242629 -4e-05 -18.787107 1.5e-05 -0.429731 -8.455974 2.555499 2e-06 1e-06 1e-06 -15.923521 -20.094379 -5.473557 30.419071 -7.190704 1.735962 -1.6e-05 -8.162854 8e-06 -1.861954 -22.861271 -6.167898 0.0 -3e-06 -3e-06 174.789307 0.172893 -0.692861 14.768616 4.4e-05 0.049225 -78.623718 4.294754 -0.476476 -5.617188 1.482105 2.155145 -0.999998 -0.0 -0.0 -7.355695 -2.055155 -6.299726 18.395615 -0.020466 -0.07593 -81.084335 -4.897766 -3.739302 -6.105676 0.68974 1.654387 -1.000004 -1e-06 0.0 
